<svg id="Layer_1" data-name="Layer 1" xmlns="http://www.w3.org/2000/svg" viewBox="0 0 146.92 17.22"><title>login</title><path d="M447.93,109H433.66a17.89,17.89,0,0,0-1.41-3.78,0.81,0.81,0,0,0-.72-0.44H325.93a0.81,0.81,0,0,0-.72.44A17.87,17.87,0,0,0,323.8,109H309.53a4.26,4.26,0,0,0,0,8.51h14.21a17.93,17.93,0,0,0,1.48,4,0.81,0.81,0,0,0,.72.44H431.52a0.81,0.81,0,0,0,.72-0.44,17.9,17.9,0,0,0,1.48-4h14.21A4.26,4.26,0,1,0,447.93,109ZM326.44,120.35c-0.14-.29-0.26-0.58-0.38-0.88H431.4q-0.18.44-.38,0.88H326.44Zm-0.61-1.49a16.45,16.45,0,0,1-.06-10.83H431.69a16.43,16.43,0,0,1-.06,10.83H325.83ZM309,110.65a5.63,5.63,0,0,0,.08,5.19A2.63,2.63,0,0,1,309,110.65Zm0.83,5.22a5,5,0,0,1-.14-5.27h13.76a18.08,18.08,0,0,0,0,5.27H309.85ZM431,106.38c0.16,0.34.31,0.69,0.44,1H326c0.14-.35.28-0.7,0.44-1H431Zm3,4.22h13.66a5.06,5.06,0,0,1-.13,5.27H434A18,18,0,0,0,434,110.6Zm14.35,0a2.63,2.63,0,0,1-.08,5.22A5.63,5.63,0,0,0,448.33,110.63Z" transform="translate(-305.27 -104.76)"/><path d="M338.21,115.78l-0.36,1h-2.38l3-7h2.38l2.85,7h-2.47l-0.35-1h-2.63Zm1.34-3.71-0.74,2h1.46Z" transform="translate(-305.27 -104.76)"/><path d="M350.27,111l-1.34,1.59a2.15,2.15,0,0,0-1.59-.94,1.62,1.62,0,0,0,0,3.22,2.39,2.39,0,0,0,1.59-.8l1.34,1.43a4.35,4.35,0,0,1-3,1.4,3.59,3.59,0,1,1,.09-7.18A4.21,4.21,0,0,1,350.27,111Z" transform="translate(-305.27 -104.76)"/><path d="M357.05,111l-1.34,1.59a2.15,2.15,0,0,0-1.59-.94,1.62,1.62,0,0,0,0,3.22,2.39,2.39,0,0,0,1.59-.8l1.34,1.43a4.35,4.35,0,0,1-3,1.4,3.59,3.59,0,1,1,.09-7.18A4.21,4.21,0,0,1,357.05,111Z" transform="translate(-305.27 -104.76)"/><path d="M364.77,113.26a3.86,3.86,0,1,1-3.85-3.57A3.62,3.62,0,0,1,364.77,113.26Zm-5.32,0a1.59,1.59,0,0,0,1.5,1.67,1.54,1.54,0,0,0,1.44-1.67,1.52,1.52,0,0,0-1.44-1.65A1.56,1.56,0,0,0,359.45,113.27Z" transform="translate(-305.27 -104.76)"/><path d="M372.05,113.8a3,3,0,0,1-3.34,3.07c-2,0-3.39-1.21-3.39-3.07v-4h2.32v4a1.08,1.08,0,0,0,1.08,1.14,1,1,0,0,0,1-1.14v-4h2.32v4h0Z" transform="translate(-305.27 -104.76)"/><path d="M377.82,116.77l-2.76-3.58v3.58H373v-7h1.94l2.77,3.6v-3.6h2.1v7h-1.94Z" transform="translate(-305.27 -104.76)"/><path d="M384.62,111.59v5.18H382.3v-5.18h-2v-1.83h6.31v1.83h-2Z" transform="translate(-305.27 -104.76)"/><path d="M394.5,114.84v1.93h-5.24v-7h2.32v5.08h2.92Z" transform="translate(-305.27 -104.76)"/><path d="M402.45,113.26a3.86,3.86,0,1,1-3.85-3.57A3.62,3.62,0,0,1,402.45,113.26Zm-5.32,0a1.59,1.59,0,0,0,1.5,1.67,1.54,1.54,0,0,0,1.44-1.67,1.52,1.52,0,0,0-1.44-1.65A1.56,1.56,0,0,0,397.13,113.27Z" transform="translate(-305.27 -104.76)"/><path d="M409.62,113.08V116a6.18,6.18,0,0,1-3.07.9,3.58,3.58,0,0,1-3.8-3.6,3.65,3.65,0,0,1,3.95-3.58,4.81,4.81,0,0,1,3,1.08l-1.31,1.59a2.67,2.67,0,0,0-1.73-.74,1.66,1.66,0,0,0,0,3.32,2.68,2.68,0,0,0,.92-0.23v-1.63h2Z" transform="translate(-305.27 -104.76)"/><path d="M410.49,116.77v-7h2.32v7h-2.32Z" transform="translate(-305.27 -104.76)"/><path d="M418.67,116.77l-2.76-3.58v3.58h-2.11v-7h1.94l2.77,3.6v-3.6h2.1v7h-1.94Z" transform="translate(-305.27 -104.76)"/></svg>