<?xml version="1.0" encoding="utf-8"?>
<!-- Generator: Adobe Illustrator 16.0.0, SVG Export Plug-In . SVG Version: 6.00 Build 0)  -->
<!DOCTYPE svg PUBLIC "-//W3C//DTD SVG 1.1//EN" "http://www.w3.org/Graphics/SVG/1.1/DTD/svg11.dtd">
<svg version="1.1" id="Layer_1" xmlns="http://www.w3.org/2000/svg" xmlns:xlink="http://www.w3.org/1999/xlink" x="0px" y="0px"
	 width="211px" height="44px" viewBox="0 0 211 44" enable-background="new 0 0 211 44" xml:space="preserve">
<path fill="#FFFFFF" d="M33.085,10.134L33.085,10.134L33.085,10.134L33.085,10.134z M25.455,5.174
	C15.568,5.12,7.508,13.089,7.453,22.977c-0.04,7.178,4.211,13.687,10.801,16.533c2.218,0.978,4.613,1.495,7.038,1.518h0.163
	c1.14,0.002,2.276-0.106,3.395-0.327c1.27-0.236,2.508-0.616,3.692-1.134c9.108-3.846,13.371-14.35,9.524-23.457
	C39.25,9.445,32.699,5.13,25.465,5.175L25.455,5.174L25.455,5.174z M33.934,27.16h1.908c0.39,0,0.705,0.314,0.705,0.705
	c0,0.39-0.315,0.704-0.705,0.704h-1.908C34,28.102,34.005,27.626,33.934,27.16L33.934,27.16z M16.766,28.569h-1.907
	c-0.39,0-0.706-0.314-0.706-0.704c0-0.391,0.316-0.705,0.706-0.705h1.907c-0.075,0.452-0.086,0.916-0.038,1.37L16.766,28.569z
	 M17.139,37.402c-7.903-4.567-10.606-14.68-6.037-22.583c0.911-1.577,2.077-2.993,3.452-4.189c-0.143,0.593-0.169,1.208-0.077,1.812
	c-5.875,6.042-5.739,15.703,0.304,21.579c0.725,0.704,1.518,1.334,2.368,1.882v1.489L17.139,37.402z M32.398,38.203
	c-1.176,0.557-2.416,0.971-3.691,1.229c-1.104,0.229-2.229,0.343-3.357,0.343h-0.2c-1.195-0.017-2.385-0.164-3.549-0.437
	c-1.215-0.288-2.392-0.713-3.51-1.269v-7.631h14.307v7.696V38.203z M32.789,29.522H18.092c-0.489-1.078-0.489-2.316,0-3.394h14.697
	c0.48,1.066,0.486,2.285,0.02,3.358L32.789,29.522z M32.855,19.367c0.324,0.236,0.516,0.611,0.516,1.011v2.346
	c0.003,0.542-0.344,1.022-0.858,1.192c-4.544,1.477-9.438,1.477-13.982,0c-0.519-0.166-0.869-0.648-0.869-1.192v-2.346
	c0-0.403,0.196-0.78,0.524-1.011c0.126-0.089,0.269-0.154,0.419-0.191v-3.367l0,0l-0.505-0.267
	c-0.167-0.103-0.326-0.218-0.477-0.343c-0.158-0.124-0.305-0.261-0.439-0.41l-0.2-0.218l-0.047-0.059l-0.077-0.095l-0.076-0.105
	c-0.105-0.152-0.201-0.267-0.315-0.448c-0.114-0.182-0.219-0.4-0.324-0.611c-0.106-0.209-0.153-0.419-0.22-0.639
	c-0.067-0.22-0.084-0.458-0.114-0.687c-0.03-0.48,0.024-0.961,0.162-1.421c0.28-0.918,0.857-1.717,1.64-2.271
	c0.384-0.284,0.812-0.5,1.27-0.639c0.238-0.075,0.484-0.121,0.734-0.142H19.8h0.477c0.447,0.035,0.888,0.12,1.315,0.257
	c0.392,0.129,0.771,0.293,1.135,0.486l0.258,0.152l0,0l0.314-0.124c0.429-0.149,0.874-0.245,1.327-0.286
	c0.114-0.007,0.228-0.007,0.342,0h0.343c0.115-0.007,0.229-0.007,0.344,0h0.342c0.229,0.047,0.455,0.107,0.677,0.181l0.323,0.124
	l0.315,0.144l0.201,0.113c0.232-0.152,0.476-0.288,0.725-0.409c0.37-0.187,0.756-0.34,1.154-0.458
	c0.415-0.125,0.844-0.199,1.277-0.219c0.457-0.033,0.916,0.016,1.355,0.143c0.454,0.127,0.878,0.34,1.25,0.63
	c0.365,0.267,0.688,0.589,0.954,0.954l0.086,0.133l0,0l0,0l0,0v0.058c0,0.095,0.086,0.153,0.144,0.268l0.152,0.342l0.105,0.334
	c0.117,0.441,0.155,0.899,0.114,1.354c-0.073,0.878-0.404,1.714-0.954,2.403c-0.262,0.334-0.566,0.632-0.906,0.888
	c-0.193,0.145-0.397,0.275-0.61,0.391v3.711c0.201,0.062,0.383,0.177,0.525,0.333L32.855,19.367z M33.562,37.488V36.01
	c7.146-4.469,9.316-13.884,4.848-21.029c-0.624-0.998-1.361-1.92-2.197-2.748c0.127-0.562,0.127-1.146,0-1.708
	c6.942,5.936,7.756,16.376,1.819,23.315c-1.255,1.471-2.759,2.708-4.442,3.657L33.562,37.488z M18.912,20.32v2.347
	c4.29,1.4,8.913,1.4,13.201,0V20.32c-4.275,1.407-8.885,1.427-13.171,0.058L18.912,20.32z M33.514,11.631
	c0.009-0.294-0.033-0.588-0.124-0.868l-0.076-0.21c0-0.057-0.057-0.115-0.077-0.171c-0.018-0.057-0.095-0.154-0.133-0.229v-0.047
	l0,0l0,0l-0.066-0.095c-0.328-0.488-0.814-0.848-1.374-1.021c-0.285-0.081-0.581-0.115-0.877-0.104
	c-0.323,0.009-0.642,0.054-0.955,0.133c-0.324,0.082-0.643,0.187-0.954,0.315c-0.325,0.129-0.644,0.274-0.953,0.439l0,0
	l-0.333,0.218L27.19,9.762c-0.143-0.085-0.286-0.19-0.438-0.256L26.522,9.4c-0.077-0.033-0.157-0.062-0.239-0.086
	c-0.158-0.056-0.321-0.101-0.486-0.133H25.55c-0.085-0.008-0.172-0.008-0.258,0c-0.085-0.009-0.171-0.009-0.257,0h-0.267
	l-0.439,0.066L24.53,9.41l0.744,0.601c0.213,0.187,0.436,0.361,0.667,0.524c0.381,0.278,0.807,0.491,1.259,0.629
	c0.358,0.106,0.733,0.147,1.106,0.124h0.229h0.2c0.11-0.013,0.218-0.035,0.324-0.066l0.277-0.068l-0.229,0.182
	c-0.088,0.074-0.183,0.138-0.286,0.191l-0.19,0.114l-0.239,0.095c-0.412,0.165-0.854,0.24-1.297,0.22
	c-0.583-0.031-1.154-0.18-1.678-0.439c-0.574-0.281-1.129-0.599-1.661-0.954c-0.537-0.365-1.104-0.684-1.696-0.953
	c-0.306-0.141-0.625-0.246-0.954-0.315c-0.298-0.071-0.6-0.112-0.907-0.124h-0.381h-0.096c-0.133,0.022-0.264,0.057-0.39,0.105
	c-0.275,0.098-0.533,0.24-0.763,0.42c-0.234,0.181-0.443,0.392-0.621,0.629c-0.082,0.119-0.155,0.244-0.219,0.372l-0.096,0.191
	l-0.058,0.191c-0.165,0.524-0.145,1.09,0.058,1.602c0.057,0.105,0.104,0.229,0.152,0.343l0.058,0.105l0.076,0.104l0.143,0.221
	l0.067,0.104l0,0l0,0l0.134,0.163c0.078,0.112,0.17,0.21,0.276,0.295c0.353,0.347,0.791,0.597,1.269,0.725
	c0.438,0.126,0.89,0.19,1.345,0.191c0.429,0,0.82,0,1.145-0.077c0.657-0.086,1.059-0.181,1.059-0.181
	c-0.249,0.28-0.539,0.522-0.858,0.716c-0.369,0.234-0.766,0.42-1.184,0.553c-0.503,0.148-1.03,0.207-1.554,0.171v3.271
	c3.688,1.077,7.605,1.077,11.292,0v-3.423c-0.531,0.122-1.081,0.147-1.622,0.077c-0.392-0.055-0.776-0.158-1.144-0.305
	c-0.357-0.146-0.696-0.332-1.012-0.553c0.358,0.114,0.724,0.197,1.097,0.248c0.171,0,0.362,0,0.544,0.058
	c0.181,0.009,0.363,0.009,0.544,0c0.35-0.023,0.695-0.087,1.029-0.191c0.335-0.098,0.657-0.243,0.954-0.429
	c0.291-0.167,0.56-0.369,0.802-0.602c0.234-0.233,0.445-0.489,0.629-0.763c0.389-0.528,0.62-1.157,0.668-1.812L33.514,11.631z
	 M25.427,2.275c-11.462,0-20.754,9.292-20.754,20.754c0,11.461,9.292,20.751,20.754,20.751c11.461,0,20.753-9.29,20.753-20.751
	C46.149,11.604,36.889,2.353,25.465,2.332L25.427,2.275z M25.427,42.713c-10.873,0-19.686-8.812-19.686-19.684
	c0-10.873,8.813-19.686,19.686-19.686c10.872,0,19.686,8.813,19.686,19.686c0.016,10.872-8.776,19.7-19.647,19.731L25.427,42.713z"
	/>
<path fill="#29ABE2" d="M18.092,30.506v7.63c1.113,0.542,2.284,0.954,3.491,1.231v-8.821h-3.491V30.506z"/>
<path fill="#E90E8B" d="M21.621,30.506v8.822c1.164,0.274,2.354,0.423,3.547,0.438v-9.26H21.621z"/>
<path fill="#FCEE21" d="M25.168,30.506v9.26h0.201c1.128,0,2.253-0.115,3.357-0.34v-8.92H25.168L25.168,30.506z"/>
<path d="M14.821,27.16c-0.389,0-0.706,0.314-0.706,0.705c0,0.39,0.316,0.704,0.706,0.704h1.907c-0.064-0.468-0.064-0.941,0-1.409
	H14.821L14.821,27.16z M35.803,28.569c0.39,0,0.706-0.314,0.706-0.704c0-0.391-0.316-0.705-0.706-0.705h-1.908
	c0.065,0.466,0.065,0.941,0,1.409H35.803L35.803,28.569z M25.417,3.4c-10.873,0-19.686,8.814-19.686,19.686
	c0,10.871,8.813,19.686,19.686,19.686c10.872,0,19.686-8.814,19.686-19.686c0-0.003,0-0.006,0-0.009
	C45.086,12.232,36.311,3.437,25.465,3.4H25.417z M32.502,39.53c-1.183,0.516-2.421,0.896-3.69,1.133
	c-1.119,0.219-2.256,0.327-3.396,0.325h-0.162c-2.426-0.021-4.821-0.538-7.039-1.517C9.171,35.479,5.075,24.91,9.066,15.866
	c3.992-9.045,14.561-13.142,23.606-9.15c9.045,3.992,13.142,14.561,9.149,23.607c-1.822,4.127-5.137,7.418-9.28,9.203h-0.039V39.53z
	 M33.008,15.065c0.339-0.255,0.644-0.553,0.906-0.887c0.549-0.689,0.881-1.524,0.955-2.403c0.039-0.455,0.001-0.912-0.116-1.354
	l-0.105-0.334l-0.152-0.343c-0.047-0.114-0.096-0.172-0.143-0.267V9.419l0,0l0,0l0,0l-0.086-0.133
	C34,8.92,33.679,8.599,33.314,8.332c-0.371-0.289-0.796-0.503-1.25-0.63c-0.439-0.128-0.898-0.177-1.354-0.143
	c-0.434,0.021-0.862,0.095-1.278,0.22c-0.396,0.12-0.782,0.272-1.154,0.457c-0.25,0.122-0.492,0.258-0.725,0.411l-0.2-0.114
	l-0.314-0.143l-0.363-0.268c-0.222-0.073-0.447-0.133-0.677-0.181h-0.342c-0.115-0.008-0.23-0.008-0.345,0h-0.343
	c-0.115,0-0.229,0-0.343,0c-0.225,0.021-0.448,0.057-0.668,0.105c-0.219,0.051-0.436,0.114-0.648,0.19l-0.315,0.125l0,0
	l-0.257-0.153c-0.364-0.193-0.744-0.357-1.135-0.486c-0.424-0.136-0.862-0.222-1.306-0.257h-0.487h-0.182
	c-0.249,0.021-0.496,0.069-0.734,0.143c-0.457,0.138-0.886,0.354-1.269,0.639c-0.783,0.555-1.36,1.352-1.64,2.271
	c-0.137,0.46-0.192,0.941-0.162,1.421c0,0.229,0.066,0.457,0.115,0.687c0.047,0.229,0.143,0.429,0.218,0.639
	c0.077,0.209,0.21,0.419,0.324,0.61c0.115,0.191,0.201,0.296,0.315,0.448l0.076,0.105l0.077,0.096l0.047,0.056l0.2,0.22
	c0.135,0.148,0.282,0.286,0.44,0.409c0.149,0.127,0.309,0.242,0.477,0.345c0.163,0.094,0.343,0.181,0.506,0.266l0,0v3.367
	c-0.151,0.036-0.293,0.101-0.42,0.19c-0.328,0.232-0.523,0.61-0.523,1.011v2.347c-0.001,0.544,0.35,1.024,0.867,1.192
	c4.543,1.476,9.438,1.476,13.982,0c0.515-0.17,0.862-0.651,0.858-1.192v-2.347c0.006-0.577-0.391-1.082-0.954-1.211v-3.71
	c0.217-0.117,0.424-0.251,0.62-0.401H33.008L33.008,15.065z M33.008,10.134L33.008,10.134L33.008,10.134L33.008,10.134z
	 M32.055,22.724c-4.289,1.401-8.912,1.401-13.2,0v-2.346c4.289,1.393,8.91,1.393,13.2,0V22.724z M32.255,14.235
	c-0.241,0.233-0.51,0.434-0.801,0.602c-0.297,0.186-0.618,0.33-0.954,0.428c-0.333,0.106-0.68,0.17-1.03,0.191
	c-0.181,0-0.362,0-0.544,0c-0.181,0-0.362,0-0.544-0.058c-0.371-0.049-0.739-0.132-1.097-0.248c0.315,0.223,0.654,0.408,1.011,0.554
	c0.367,0.149,0.752,0.252,1.145,0.305c0.54,0.071,1.089,0.045,1.622-0.076v3.423c-3.688,1.076-7.605,1.076-11.293,0v-3.271
	c0.524,0.035,1.051-0.024,1.554-0.172c0.417-0.132,0.814-0.318,1.184-0.553c0.32-0.193,0.61-0.434,0.858-0.715
	c0,0-0.401,0.086-1.06,0.181c-0.333,0-0.725,0.067-1.144,0.077c-0.455-0.002-0.907-0.066-1.344-0.191
	c-0.479-0.127-0.917-0.377-1.269-0.725c-0.106-0.085-0.199-0.185-0.276-0.296l-0.134-0.161l0,0l0,0l-0.066-0.105l-0.144-0.22
	l-0.076-0.104l-0.058-0.105c0-0.114-0.096-0.229-0.152-0.342c-0.203-0.513-0.223-1.079-0.058-1.603l0.058-0.191l0.095-0.191
	c0.065-0.128,0.139-0.253,0.22-0.373c0.176-0.237,0.385-0.449,0.62-0.629c0.23-0.179,0.487-0.321,0.762-0.419
	c0.126-0.049,0.258-0.084,0.392-0.105h0.096h0.381c0.305,0.012,0.609,0.053,0.907,0.124c0.328,0.07,0.648,0.175,0.953,0.315
	c0.592,0.268,1.16,0.588,1.697,0.954c0.531,0.354,1.085,0.672,1.66,0.953c0.524,0.259,1.095,0.408,1.678,0.44
	c0.443,0.019,0.885-0.057,1.296-0.221l0.24-0.095l0.19-0.115c0.102-0.054,0.197-0.117,0.285-0.19l0.229-0.181l-0.276,0.066
	c-0.106,0.031-0.214,0.054-0.325,0.066h-0.2h-0.229c-0.373,0.025-0.747-0.016-1.105-0.122c-0.453-0.139-0.878-0.351-1.259-0.63
	c-0.231-0.164-0.455-0.338-0.668-0.525L24.54,9.38l-0.201-0.162l0.438-0.067h0.257c0.086-0.008,0.172-0.008,0.257,0
	c0.086-0.007,0.173-0.007,0.258,0h0.248c0.165,0.033,0.329,0.077,0.486,0.134c0.082,0.023,0.162,0.052,0.239,0.086l0.229,0.105
	c0.152,0.066,0.286,0.181,0.438,0.257l0.402,0.229l0.333-0.22l0,0c0.31-0.163,0.627-0.31,0.953-0.438
	c0.311-0.127,0.63-0.232,0.954-0.315c0.313-0.079,0.632-0.123,0.955-0.134c0.296-0.011,0.592,0.024,0.876,0.104
	c0.562,0.173,1.046,0.534,1.375,1.021l0.066,0.095l0,0l0,0v0.048c0,0.076,0.105,0.171,0.133,0.229l0.077,0.172l0.076,0.209
	c0.091,0.28,0.133,0.574,0.124,0.868c-0.027,0.632-0.224,1.245-0.572,1.773c-0.172,0.302-0.374,0.586-0.601,0.85L32.255,14.235z
	 M18.092,26.129c-0.489,1.077-0.489,2.315,0,3.396h14.697c0.485-1.08,0.485-2.317,0-3.396H18.092z M10.147,23.086
	c0.001-3.972,1.551-7.787,4.32-10.634c-0.093-0.604-0.067-1.219,0.076-1.813c-6.878,6.002-7.587,16.443-1.585,23.322
	c1.194,1.368,2.606,2.531,4.18,3.441v-1.487c-4.348-2.816-6.97-7.648-6.962-12.829H10.147z M36.213,10.525
	c0.127,0.562,0.127,1.146,0,1.707c5.992,5.928,6.044,15.591,0.115,21.581c-0.83,0.84-1.755,1.579-2.757,2.206v1.479
	c7.959-4.482,10.777-14.567,6.295-22.526C38.918,13.288,37.682,11.782,36.213,10.525z M28.708,39.426
	c1.275-0.261,2.515-0.676,3.691-1.231v-7.688h-3.691V39.426z"/>
<path d="M66.915,16.496l-1.993,4.177c-1.762-1.01-3.707-1.659-5.723-1.907c-0.61,0-1.021,0.19-1.021,0.688
	c0,2.088,8.583,0.781,8.583,6.811c0,3.699-3.251,5.33-7,5.33c-2.983-0.002-5.892-0.928-8.326-2.65l2.041-4.131
	c1.82,1.451,4.017,2.35,6.333,2.585c0.802,0,1.326-0.258,1.326-0.851c0-2.163-8.583-0.732-8.583-6.57
	c0-3.32,2.804-5.407,7.125-5.407C62.218,14.55,64.719,15.216,66.915,16.496z"/>
<path d="M83.968,24.346c0,4.416-3.109,7.286-7.925,7.286c-4.817,0-8.042-2.862-8.042-7.286v-9.539h5.504v9.539
	c-0.074,1.421,1.019,2.629,2.438,2.704c0.043,0.002,0.086,0.004,0.128,0.004c1.353-0.025,2.431-1.14,2.407-2.493
	c-0.001-0.072-0.005-0.145-0.013-0.215v-9.538h5.503L83.968,24.346L83.968,24.346z"/>
<path d="M94.535,14.769c4.006,0,6.601,1.66,6.601,4.197c-0.034,1.679-1.18,3.132-2.805,3.558c1.966,0.422,3.349,2.188,3.29,4.197
	c0,2.86-2.632,4.672-6.676,4.672h-8.832V14.769H94.535z M91.598,21.179h2.632c0.641,0.054,1.203-0.423,1.257-1.062
	c0.004-0.05,0.005-0.099,0.003-0.149c0.02-0.625-0.473-1.149-1.099-1.169c-0.053-0.002-0.106,0-0.161,0.006h-2.632V21.179
	L91.598,21.179z M91.598,27.368h2.632c0.784,0.138,1.531-0.384,1.67-1.168c0.009-0.054,0.016-0.112,0.019-0.168
	c0-0.732-0.667-2.21-1.688-2.21l-2.632,1V27.368L91.598,27.368z"/>
<path d="M109.748,23.516l-3.225,3.538v4.339h-1.906V14.789h1.906v9.538l8.927-9.538h2.252l-6.571,7.21l7.105,9.394h-2.328
	L109.748,23.516z"/>
<path d="M121.222,31.393V14.789h1.907v16.604H121.222z"/>
<path d="M133.201,16.62v14.773h-1.907V16.62h-5.427v-1.831h12.742v1.831h-5.428H133.201z"/>
<path d="M153.525,17.164l-1.145,1.45c-1.296-1.32-3.062-2.071-4.912-2.089c-3.615-0.139-6.659,2.682-6.797,6.298
	c-0.137,3.617,2.683,6.66,6.298,6.796c0.167,0.008,0.334,0.008,0.499,0c1.831-0.016,3.588-0.729,4.912-1.992l1.164,1.315
	c-1.665,1.598-3.866,2.511-6.172,2.557c-4.625-0.019-8.357-3.783-8.34-8.406c0.018-4.625,3.783-8.36,8.407-8.341
	C149.7,14.761,151.873,15.622,153.525,17.164z"/>
<path d="M168.861,31.393v-7.305h-10.013v7.305h-1.909V14.789h1.909v7.497h10.013v-7.497h1.907v16.604H168.861z"/>
<path d="M177.693,16.62v5.446h8.374v1.831h-8.374v5.723h9.68v1.773h-11.577V14.789h11.274v1.831h-9.367H177.693z"/>
<path d="M203.121,31.393l-9.967-13.352v13.352h-1.907V14.789h1.965l9.967,13.353V14.789h1.906v16.604h-1.906H203.121L203.121,31.393
	z"/>
<path d="M180.326,35.333c1.658,0,2.69,0.754,2.69,2.001c0.029,0.862-0.568,1.616-1.413,1.784c1.024,0.101,1.784,0.995,1.718,2.025
	c0,1.369-1.106,2.191-2.919,2.191h-3.558v-8.012h3.482L180.326,35.333L180.326,35.333z M178.2,38.651h2.029
	c0.621,0.128,1.225-0.272,1.353-0.895c0.013-0.059,0.019-0.119,0.021-0.185c-0.031-0.62-0.56-1.097-1.182-1.064
	c-0.065,0.003-0.128,0.013-0.192,0.025h-2.06v2.118H178.2L178.2,38.651z M178.2,42.143h2.029c1.05,0,1.679-0.409,1.679-1.164
	c0-0.754-0.629-1.135-1.679-1.135h-2.06v2.299H178.2z"/>
<path d="M186.277,36.546v2.162h3.91v1.214h-3.91v2.199h4.512v1.214h-5.857v-8.012h5.723v1.21h-4.367L186.277,36.546z"/>
<path d="M195.366,36.546v6.789h-1.353v-6.789h-2.528v-1.213h6.417v1.213H195.366z"/>
<path d="M199.411,41.532l-0.764,1.803h-1.41l3.538-8.012h1.393l3.499,8.012h-1.438l-0.764-1.803h-4.034H199.411z M201.423,36.763
	l-1.507,3.557h3.023L201.423,36.763z"/>
</svg>
