<svg id="Layer_1" data-name="Layer 1" xmlns="http://www.w3.org/2000/svg" viewBox="0 0 210.69 43.52"><defs><style>.cls-1{fill:#fff;}.cls-2{fill:#29abe2;}.cls-3{fill:#e90e8b;}.cls-4{fill:#fcee21;}</style></defs><title>logo_beta</title><path class="cls-1" d="M320.72,345.71h0v0h0Zm-8-5.2a18.77,18.77,0,0,0-7.55,36,18.68,18.68,0,0,0,7.38,1.59h0.17a18.45,18.45,0,0,0,3.56-.34,18,18,0,0,0,3.87-1.19A18.77,18.77,0,0,0,312.73,340.51Zm8.89,23.05h2a0.74,0.74,0,1,1,0,1.48h-2A5.3,5.3,0,0,0,321.61,363.56Zm-18,1.48h-2a0.74,0.74,0,0,1,0-1.48h2A5.37,5.37,0,0,0,303.57,365ZM304,374.3a17.33,17.33,0,0,1-2.71-28.07,4.94,4.94,0,0,0-.08,1.9,16,16,0,0,0,2.8,24.6v1.56Zm16,0.84a16.93,16.93,0,0,1-3.87,1.29,17.45,17.45,0,0,1-3.52.36h-0.21a17.33,17.33,0,0,1-3.72-.46A17.06,17.06,0,0,1,305,375v-8h15v8.07Zm0.41-9.1H305a4.31,4.31,0,0,1,0-3.56h15.41A4.35,4.35,0,0,1,320.43,366Zm0.07-10.65a1.31,1.31,0,0,1,.54,1.06v2.46a1.31,1.31,0,0,1-.9,1.25,23.73,23.73,0,0,1-14.66,0,1.31,1.31,0,0,1-.91-1.25v-2.46a1.3,1.3,0,0,1,.55-1.06,1.27,1.27,0,0,1,.44-0.2v-3.53h0l-0.53-.28a4.36,4.36,0,0,1-.5-0.36,3.55,3.55,0,0,1-.46-0.43l-0.21-.23-0.05-.06-0.08-.1-0.08-.11c-0.11-.16-0.21-0.28-0.33-0.47s-0.23-.42-0.34-0.64-0.16-.44-0.23-0.67-0.09-.48-0.12-0.72a4.27,4.27,0,0,1,.17-1.49,4.53,4.53,0,0,1,1.72-2.38,4.33,4.33,0,0,1,1.33-.67,3.58,3.58,0,0,1,.77-0.15l0.19,0h0.5a6.16,6.16,0,0,1,1.38.27,7.54,7.54,0,0,1,1.19.51l0.27,0.16h0l0.33-.13a5.79,5.79,0,0,1,1.39-.3,3.28,3.28,0,0,1,.36,0h0.36a3.24,3.24,0,0,1,.36,0l0.36,0a6.42,6.42,0,0,1,.71.19l0.34,0.13,0.33,0.15,0.21,0.12a7,7,0,0,1,.76-0.43,7.45,7.45,0,0,1,1.21-.48,5.58,5.58,0,0,1,1.34-.23,4.06,4.06,0,0,1,1.42.15,3.79,3.79,0,0,1,1.31.66,4.59,4.59,0,0,1,1,1l0.09,0.14,0,0,0,0v0l0,0.06c0,0.1.09,0.16,0.15,0.28l0.16,0.36,0.11,0.35a4.14,4.14,0,0,1,.12,1.42,4.67,4.67,0,0,1-1,2.52,5.15,5.15,0,0,1-.95.93,5.34,5.34,0,0,1-.64.41v3.89A1.24,1.24,0,0,1,320.51,355.38Zm0.74,19v-1.55A16,16,0,0,0,324,347.91a4.08,4.08,0,0,0,0-1.79A17.34,17.34,0,0,1,321.25,374.4Zm-15.36-18v2.46a22.28,22.28,0,0,0,13.84,0v-2.46A22.39,22.39,0,0,1,305.89,356.45Zm15.31-9.11a2.7,2.7,0,0,0-.13-0.91l-0.08-.22c0-.06-0.06-0.12-0.08-0.18s-0.1-.16-0.14-0.24l0-.05h0l0,0-0.07-.1a2.7,2.7,0,0,0-1.44-1.07,3,3,0,0,0-.92-0.11,4.57,4.57,0,0,0-1,.14,7.4,7.4,0,0,0-1,.33,10.2,10.2,0,0,0-1,.46h0l-0.35.23-0.42-.24c-0.15-.09-0.3-0.2-0.46-0.27l-0.24-.11a2.31,2.31,0,0,0-.25-0.09,3.66,3.66,0,0,0-.51-0.14l-0.26,0a1.52,1.52,0,0,0-.27,0,1.39,1.39,0,0,0-.27,0H312l-0.46.07,0.21,0.17,0.78,0.63a8.47,8.47,0,0,0,.7.55,4.41,4.41,0,0,0,1.32.66,3.34,3.34,0,0,0,1.16.13l0.24,0,0.21,0a2.24,2.24,0,0,0,.34-0.07l0.29-.07-0.24.19a1.67,1.67,0,0,1-.3.2l-0.2.12-0.25.1a3.3,3.3,0,0,1-1.36.23,4.52,4.52,0,0,1-1.76-.46,14.91,14.91,0,0,1-1.74-1,11.93,11.93,0,0,0-1.78-1,4.77,4.77,0,0,0-1-.33,4.88,4.88,0,0,0-.95-0.13h-0.4l-0.1,0a2.15,2.15,0,0,0-.41.11,2.87,2.87,0,0,0-.8.44,3.42,3.42,0,0,0-.65.66,3.32,3.32,0,0,0-.23.39l-0.1.2-0.06.2a2.51,2.51,0,0,0,.06,1.68c0.06,0.11.11,0.24,0.16,0.36l0.06,0.11,0.08,0.11,0.15,0.23,0.07,0.11,0,0,0,0,0.14,0.17a1.48,1.48,0,0,0,.29.31,3,3,0,0,0,1.33.76,5.17,5.17,0,0,0,1.41.2c0.45,0,.86,0,1.2-0.08,0.69-.09,1.11-0.19,1.11-0.19a3.86,3.86,0,0,1-.9.75,5.31,5.31,0,0,1-1.24.58,4.68,4.68,0,0,1-1.63.18v3.43a21.14,21.14,0,0,0,11.84,0v-3.59a4.83,4.83,0,0,1-1.7.08,5.15,5.15,0,0,1-1.2-.32,5.33,5.33,0,0,1-1.06-.58,6.73,6.73,0,0,0,1.15.26c0.18,0,.38,0,0.57.06a5.31,5.31,0,0,0,.57,0,4.67,4.67,0,0,0,1.08-.2,4,4,0,0,0,1-.45,4.32,4.32,0,0,0,.84-0.63,5.34,5.34,0,0,0,.66-0.8A3.64,3.64,0,0,0,321.2,347.34Zm-8.48-9.81a21.76,21.76,0,1,0,21.76,21.76A21.76,21.76,0,0,0,312.73,337.53Zm0,42.4a20.64,20.64,0,1,1,20.64-20.64A20.66,20.66,0,0,1,312.73,379.92Z" transform="translate(-290.97 -337.53)"/><path class="cls-2" d="M305,367.07v8a17.06,17.06,0,0,0,3.66,1.29v-9.25H305Z" transform="translate(-290.97 -337.53)"/><path class="cls-3" d="M308.7,367.07v9.25a17.31,17.31,0,0,0,3.72.46v-9.71H308.7Z" transform="translate(-290.97 -337.53)"/><path class="cls-4" d="M312.42,367.07v9.71h0.21a17.46,17.46,0,0,0,3.52-.36v-9.35h-3.73Z" transform="translate(-290.97 -337.53)"/><path d="M301.57,363.56a0.74,0.74,0,0,0,0,1.48h2a5.39,5.39,0,0,1,0-1.48h-2Zm22,1.48a0.74,0.74,0,1,0,0-1.48h-2a5.39,5.39,0,0,1,0,1.48h2Zm-10.89-26.39a20.64,20.64,0,1,0,20.64,20.63A20.66,20.66,0,0,0,312.73,338.65Zm7.43,37.88a18,18,0,0,1-3.87,1.19,18.44,18.44,0,0,1-3.56.34h-0.17a18.68,18.68,0,0,1-7.38-1.59A18.77,18.77,0,1,1,320.15,376.53Zm0.53-25.65a5.15,5.15,0,0,0,.95-0.93,4.67,4.67,0,0,0,1-2.52,4.14,4.14,0,0,0-.12-1.42l-0.11-.35-0.16-.36c-0.05-.12-0.1-0.18-0.15-0.28l0-.06v0l0,0,0,0-0.09-.14a4.59,4.59,0,0,0-1-1,3.79,3.79,0,0,0-1.31-.66,4,4,0,0,0-1.42-.15,5.58,5.58,0,0,0-1.34.23,7.63,7.63,0,0,0-1.21.48,6.79,6.79,0,0,0-.76.43l-0.21-.12-0.33-.15L314,343.6a6.42,6.42,0,0,0-.71-0.19l-0.36,0a2.82,2.82,0,0,0-.36,0h-0.36c-0.12,0-.24,0-0.36,0a6.19,6.19,0,0,0-.7.11,6.38,6.38,0,0,0-.68.2l-0.33.13h0l-0.27-.16a7.77,7.77,0,0,0-1.19-.51,6.16,6.16,0,0,0-1.37-.27H306.8l-0.19,0a3.65,3.65,0,0,0-.77.15,4.31,4.31,0,0,0-1.33.67,4.53,4.53,0,0,0-1.72,2.38,4.29,4.29,0,0,0-.17,1.49c0,0.24.07,0.48,0.12,0.72s0.15,0.45.23,0.67,0.22,0.44.34,0.64,0.21,0.31.33,0.47l0.08,0.11,0.08,0.1,0.05,0.06,0.21,0.23a3.63,3.63,0,0,0,.46.43,4.13,4.13,0,0,0,.5.36c0.17,0.1.36,0.19,0.53,0.28h0v3.53a1.26,1.26,0,0,0-.44.2,1.3,1.3,0,0,0-.55,1.06v2.46a1.31,1.31,0,0,0,.91,1.25,23.73,23.73,0,0,0,14.66,0,1.31,1.31,0,0,0,.9-1.25v-2.46a1.29,1.29,0,0,0-1-1.27v-3.89A5,5,0,0,0,320.68,350.88Zm0-5.17h0v0h0Zm-1,13.2a22.28,22.28,0,0,1-13.84,0v-2.46a22.39,22.39,0,0,0,13.84,0v2.46Zm0.21-8.9a4.33,4.33,0,0,1-.84.63,4,4,0,0,1-1,.45,4.47,4.47,0,0,1-1.08.2c-0.19,0-.38,0-0.57,0s-0.38,0-.57-0.06a6.63,6.63,0,0,1-1.15-.26,5.3,5.3,0,0,0,1.06.58,5,5,0,0,0,1.2.32,4.83,4.83,0,0,0,1.7-.08v3.59a21.14,21.14,0,0,1-11.84,0v-3.43a4.68,4.68,0,0,0,1.63-.18,5.31,5.31,0,0,0,1.24-.58,3.83,3.83,0,0,0,.9-0.75s-0.42.09-1.11,0.19c-0.35,0-.76.07-1.2,0.08a5.25,5.25,0,0,1-1.41-.2,3,3,0,0,1-1.33-.76,1.48,1.48,0,0,1-.29-0.31l-0.14-.17,0,0,0,0-0.07-.11-0.15-.23-0.08-.11-0.06-.11c0-.12-0.1-0.24-0.16-0.36a2.51,2.51,0,0,1-.06-1.68l0.06-.2,0.1-.2a3.46,3.46,0,0,1,.23-0.39,3.42,3.42,0,0,1,.65-0.66,2.86,2.86,0,0,1,.8-0.44,1.94,1.94,0,0,1,.41-0.11l0.1,0h0.4a4.88,4.88,0,0,1,.95.13,4.75,4.75,0,0,1,1,.33,11.93,11.93,0,0,1,1.78,1,15,15,0,0,0,1.74,1,4.55,4.55,0,0,0,1.76.46,3.3,3.3,0,0,0,1.36-.23l0.25-.1,0.2-.12a1.73,1.73,0,0,0,.3-0.2l0.24-.19-0.29.07a2,2,0,0,1-.34.07l-0.21,0-0.24,0a3.32,3.32,0,0,1-1.16-.13,4.4,4.4,0,0,1-1.32-.66,8.28,8.28,0,0,1-.7-0.55l-0.78-.63-0.21-.17,0.46-.07h0.27a1.39,1.39,0,0,1,.27,0,1.52,1.52,0,0,1,.27,0l0.26,0a3.41,3.41,0,0,1,.51.14,2.11,2.11,0,0,1,.25.09l0.24,0.11c0.16,0.07.3,0.19,0.46,0.27l0.42,0.24,0.35-.23h0a10.21,10.21,0,0,1,1-.46,7.54,7.54,0,0,1,1-.33,4.75,4.75,0,0,1,1-.14,3,3,0,0,1,.92.11,2.69,2.69,0,0,1,1.44,1.07l0.07,0.1,0,0h0l0,0.05c0,0.08.11,0.18,0.14,0.24l0.08,0.18,0.08,0.22a2.71,2.71,0,0,1,.13.91,3.67,3.67,0,0,1-.6,1.86A5.55,5.55,0,0,1,319.94,350ZM305,362.48a4.31,4.31,0,0,0,0,3.56h15.41a4.35,4.35,0,0,0,0-3.56H305Zm-8.33-3.19a16,16,0,0,1,4.53-11.15,4.94,4.94,0,0,1,.08-1.9A17.33,17.33,0,0,0,304,374.3v-1.56A16,16,0,0,1,296.7,359.29ZM324,346.12a4.08,4.08,0,0,1,0,1.79,16,16,0,0,1-2.77,24.94v1.55A17.34,17.34,0,0,0,324,346.12Zm-7.87,30.3a16.92,16.92,0,0,0,3.87-1.29v-8.06h-3.87v9.35Z" transform="translate(-290.97 -337.53)"/><path class="cls-1" d="M356.19,352.38l-2.09,4.38a16,16,0,0,0-6-2c-0.64,0-1.07.2-1.07,0.72,0,2.19,9,.82,9,7.14,0,3.88-3.41,5.59-7.34,5.59a15.13,15.13,0,0,1-8.73-2.78l2.14-4.33a12.72,12.72,0,0,0,6.64,2.71c0.84,0,1.39-.27,1.39-0.89,0-2.27-9-.77-9-6.89,0-3.48,2.94-5.67,7.47-5.67A14.86,14.86,0,0,1,356.19,352.38Z" transform="translate(-290.97 -337.53)"/><path class="cls-1" d="M374.07,360.61c0,4.63-3.26,7.64-8.31,7.64s-8.43-3-8.43-7.64v-10h5.77v10a2.7,2.7,0,0,0,2.69,2.84,2.57,2.57,0,0,0,2.51-2.84v-10h5.77v10h0Z" transform="translate(-290.97 -337.53)"/><path class="cls-1" d="M385.15,350.57c4.2,0,6.92,1.74,6.92,4.4a3.94,3.94,0,0,1-2.94,3.73,4.37,4.37,0,0,1,3.45,4.4c0,3-2.76,4.9-7,4.9h-9.26V350.57h8.83Zm-3.08,6.72h2.76a1.22,1.22,0,0,0,1.32-1.27,1.19,1.19,0,0,0-1.32-1.22h-2.76v2.49Zm0,6.49h2.76a1.51,1.51,0,0,0,1.77-1.4c0-.77-0.7-1.27-1.77-1.27h-2.76v2.67Z" transform="translate(-290.97 -337.53)"/><path class="cls-1" d="M401.1,359.74l-3.38,3.71V368h-2V350.59h2v10l9.36-10h2.36l-6.89,7.56L410,368h-2.44Z" transform="translate(-290.97 -337.53)"/><path class="cls-1" d="M413.13,368V350.59h2V368h-2Z" transform="translate(-290.97 -337.53)"/><path class="cls-1" d="M425.69,352.51V368h-2V352.51H418v-1.92h13.36v1.92h-5.69Z" transform="translate(-290.97 -337.53)"/><path class="cls-1" d="M447,353.08l-1.2,1.52a7.32,7.32,0,0,0-5.15-2.19,6.87,6.87,0,1,0,0,13.73,7.57,7.57,0,0,0,5.15-2.09l1.22,1.38a9.62,9.62,0,0,1-6.47,2.68,8.78,8.78,0,1,1,.07-17.56A9.42,9.42,0,0,1,447,353.08Z" transform="translate(-290.97 -337.53)"/><path class="cls-1" d="M463.08,368v-7.66h-10.5V368h-2V350.59h2v7.86h10.5v-7.86h2V368h-2Z" transform="translate(-290.97 -337.53)"/><path class="cls-1" d="M472.34,352.51v5.71h8.78v1.92h-8.78v6h10.15V368H470.35V350.59h11.82v1.92h-9.82Z" transform="translate(-290.97 -337.53)"/><path class="cls-1" d="M499,368l-10.45-14v14h-2V350.59h2.06l10.45,14v-14h2V368h-2Z" transform="translate(-290.97 -337.53)"/><path class="cls-1" d="M475.1,372.13c1.74,0,2.82.79,2.82,2.1a1.84,1.84,0,0,1-1.48,1.87,2,2,0,0,1,1.8,2.12c0,1.44-1.16,2.3-3.06,2.3h-3.73v-8.4h3.65Zm-2.23,3.48H475a1.2,1.2,0,0,0,1.44-1.13,1.18,1.18,0,0,0-1.44-1.09h-2.16v2.22Zm0,3.66H475c1.1,0,1.76-.43,1.76-1.22s-0.66-1.19-1.76-1.19h-2.16v2.41Z" transform="translate(-290.97 -337.53)"/><path class="cls-1" d="M481.34,373.4v2.27h4.1v1.27h-4.1v2.31h4.73v1.27h-6.14v-8.4h6v1.27h-4.58Z" transform="translate(-290.97 -337.53)"/><path class="cls-1" d="M490.87,373.4v7.12h-1.42V373.4H486.8v-1.27h6.73v1.27h-2.66Z" transform="translate(-290.97 -337.53)"/><path class="cls-1" d="M495.11,378.63l-0.8,1.89h-1.48l3.71-8.4H498l3.67,8.4h-1.51l-0.8-1.89h-4.23Zm2.11-5-1.58,3.73h3.17Z" transform="translate(-290.97 -337.53)"/></svg>