<svg id="Layer_1" data-name="Layer 1" xmlns="http://www.w3.org/2000/svg" viewBox="0 0 43.52 43.52"><defs><style>.cls-1{fill:#fff;}.cls-2{fill:#29abe2;}.cls-3{fill:#e90e8b;}.cls-4{fill:#fcee21;}</style></defs><title>logo</title><path class="cls-1" d="M320.72,153.6h0Zm-8-5.2a18.77,18.77,0,0,0-7.55,36,18.72,18.72,0,0,0,7.38,1.59h0.17a18.53,18.53,0,0,0,3.56-.34,18,18,0,0,0,3.87-1.19A18.77,18.77,0,0,0,312.73,148.4Zm8.89,23.05h2a0.74,0.74,0,1,1,0,1.48h-2A5.3,5.3,0,0,0,321.61,171.45Zm-18,1.48h-2a0.74,0.74,0,0,1,0-1.48h2A5.37,5.37,0,0,0,303.57,172.93Zm0.45,9.26a17.33,17.33,0,0,1-2.71-28.07,5,5,0,0,0-.08,1.9,16,16,0,0,0,2.8,24.6v1.56ZM320,183a17,17,0,0,1-3.87,1.29,17.45,17.45,0,0,1-3.52.36h-0.21a17.72,17.72,0,0,1-7.38-1.75v-8h15V183Zm0.41-9.1H305a4.31,4.31,0,0,1,0-3.55h15.41A4.35,4.35,0,0,1,320.43,173.92Zm0.07-10.65a1.3,1.3,0,0,1,.54,1.06v2.46a1.31,1.31,0,0,1-.9,1.25,23.73,23.73,0,0,1-14.66,0,1.31,1.31,0,0,1-.91-1.25v-2.46a1.3,1.3,0,0,1,.55-1.06,1.27,1.27,0,0,1,.44-0.21v-3.53h0l-0.53-.28a4.25,4.25,0,0,1-.5-0.36,3.48,3.48,0,0,1-.46-0.43l-0.21-.23-0.05-.06-0.08-.1-0.08-.11c-0.11-.16-0.21-0.28-0.33-0.47s-0.23-.42-0.34-0.64-0.16-.44-0.23-0.67-0.09-.48-0.12-0.72a4.27,4.27,0,0,1,.17-1.49,4.53,4.53,0,0,1,1.72-2.38,4.33,4.33,0,0,1,1.33-.67,3.64,3.64,0,0,1,.77-0.15l0.19,0h0.5a6.11,6.11,0,0,1,1.38.27,7.54,7.54,0,0,1,1.19.51l0.27,0.16h0l0.33-.13a5.57,5.57,0,0,1,.68-0.2,6.42,6.42,0,0,1,.7-0.11c0.12,0,.24,0,0.36,0h0.36a3,3,0,0,1,.36,0l0.36,0a6.66,6.66,0,0,1,.71.19l0.34,0.13,0.33,0.15,0.21,0.12a7.3,7.3,0,0,1,.76-0.43,7.45,7.45,0,0,1,1.21-.48,5.53,5.53,0,0,1,1.34-.23,4.06,4.06,0,0,1,1.42.15,3.82,3.82,0,0,1,1.31.66,4.64,4.64,0,0,1,1,1l0.09,0.14,0,0,0,0h0l0,0.06c0,0.1.09,0.16,0.15,0.28l0.16,0.36,0.11,0.35a4.15,4.15,0,0,1,.12,1.42,4.67,4.67,0,0,1-1,2.52,5.15,5.15,0,0,1-.95.93,5.6,5.6,0,0,1-.64.41v3.89A1.25,1.25,0,0,1,320.51,163.27Zm0.74,19v-1.55A16,16,0,0,0,324,155.8a4.08,4.08,0,0,0,0-1.79A17.33,17.33,0,0,1,321.25,182.29Zm-15.36-18v2.46a22.27,22.27,0,0,0,13.84,0v-2.46A22.37,22.37,0,0,1,305.89,164.33Zm15.31-9.11a2.71,2.71,0,0,0-.13-0.91l-0.08-.22c0-.06-0.06-0.12-0.08-0.18s-0.1-.16-0.14-0.24l0-.05h0l0,0-0.07-.1a2.69,2.69,0,0,0-1.44-1.07,3,3,0,0,0-.92-0.11,4.69,4.69,0,0,0-1,.14,7.68,7.68,0,0,0-1,.33,9.72,9.72,0,0,0-1,.46h0l-0.35.23-0.42-.24c-0.15-.09-0.3-0.2-0.46-0.27l-0.24-.11-0.25-.09a3.8,3.8,0,0,0-.51-0.14l-0.26,0a1.62,1.62,0,0,0-.27,0h-0.27a2.42,2.42,0,0,0-.27,0l-0.46.07,0.21,0.17,0.78,0.63a8.7,8.7,0,0,0,.7.55,4.43,4.43,0,0,0,1.32.66,3.34,3.34,0,0,0,1.16.13l0.24,0,0.21,0a2,2,0,0,0,.34-0.07l0.29-.07-0.24.19a1.73,1.73,0,0,1-.3.2l-0.2.12-0.25.1a3.3,3.3,0,0,1-1.36.23,4.54,4.54,0,0,1-1.76-.46,14.77,14.77,0,0,1-1.74-1,12.11,12.11,0,0,0-1.78-1,4.84,4.84,0,0,0-1-.33,5,5,0,0,0-.95-0.13h-0.4l-0.1,0a2.15,2.15,0,0,0-.41.11,2.9,2.9,0,0,0-.8.44,3.45,3.45,0,0,0-.65.66,3.49,3.49,0,0,0-.23.38l-0.1.21-0.06.21a2.51,2.51,0,0,0,.06,1.68c0.06,0.12.11,0.24,0.16,0.36a1,1,0,0,0,.06.11l0.08,0.11,0.15,0.23,0.07,0.11,0,0,0,0,0.14,0.17a1.5,1.5,0,0,0,.29.31,3.06,3.06,0,0,0,1.33.76,5.13,5.13,0,0,0,1.41.2,12,12,0,0,0,1.2-.08c0.69-.09,1.11-0.19,1.11-0.19a3.89,3.89,0,0,1-.9.75,5.31,5.31,0,0,1-1.24.57,4.71,4.71,0,0,1-1.63.18v3.43a21.12,21.12,0,0,0,11.84,0v-3.59a4.85,4.85,0,0,1-1.7.08,5.2,5.2,0,0,1-1.2-.32,5.33,5.33,0,0,1-1.06-.58,6.73,6.73,0,0,0,1.15.26c0.18,0,.38,0,0.57.06a5.32,5.32,0,0,0,.57,0,4.47,4.47,0,0,0,1.08-.2,4,4,0,0,0,1-.44,4.41,4.41,0,0,0,.84-0.63,5.34,5.34,0,0,0,.66-0.8A3.65,3.65,0,0,0,321.2,155.22Zm-8.48-9.81a21.76,21.76,0,1,0,21.76,21.76A21.76,21.76,0,0,0,312.73,145.41Zm0,42.4a20.64,20.64,0,1,1,20.64-20.64A20.66,20.66,0,0,1,312.73,187.81Z" transform="translate(-290.97 -145.41)"/><path class="cls-2" d="M305,175v8a17.17,17.17,0,0,0,3.66,1.29V175H305Z" transform="translate(-290.97 -145.41)"/><path class="cls-3" d="M308.7,175v9.26a17.31,17.31,0,0,0,3.72.46V175H308.7Z" transform="translate(-290.97 -145.41)"/><path class="cls-4" d="M312.42,175v9.71h0.21a17.46,17.46,0,0,0,3.52-.36V175h-3.73Z" transform="translate(-290.97 -145.41)"/><path d="M301.57,171.45a0.74,0.74,0,0,0,0,1.48h2a5.38,5.38,0,0,1,0-1.48h-2Zm22,1.48a0.74,0.74,0,1,0,0-1.48h-2a5.38,5.38,0,0,1,0,1.48h2Zm-10.89-26.39a20.64,20.64,0,1,0,20.64,20.63A20.66,20.66,0,0,0,312.73,146.54Zm7.43,37.88a18,18,0,0,1-3.87,1.19,18.52,18.52,0,0,1-3.56.34h-0.17a18.72,18.72,0,0,1-7.38-1.59A18.77,18.77,0,1,1,320.15,184.41Zm0.53-25.65a5.15,5.15,0,0,0,.95-0.93,4.67,4.67,0,0,0,1-2.52,4.15,4.15,0,0,0-.12-1.42l-0.11-.35-0.16-.36c-0.05-.12-0.1-0.18-0.15-0.28l0-.06h0l0,0,0,0-0.09-.14a4.64,4.64,0,0,0-1-1,3.82,3.82,0,0,0-1.31-.66,4,4,0,0,0-1.42-.15,5.53,5.53,0,0,0-1.34.23,7.54,7.54,0,0,0-1.21.48,7.12,7.12,0,0,0-.76.43l-0.21-.12-0.33-.15-0.34-.13a6.66,6.66,0,0,0-.71-0.19l-0.36,0a2.82,2.82,0,0,0-.36,0h-0.36c-0.12,0-.24,0-0.36,0a6.42,6.42,0,0,0-.7.11,5.75,5.75,0,0,0-.68.2l-0.33.13h0l-0.27-.16a7.67,7.67,0,0,0-1.19-.51,6.16,6.16,0,0,0-1.37-.27H306.8l-0.19,0a3.72,3.72,0,0,0-.77.15,4.31,4.31,0,0,0-1.33.67A4.53,4.53,0,0,0,302.8,154a4.3,4.3,0,0,0-.17,1.49c0,0.24.07,0.48,0.12,0.72s0.15,0.45.23,0.67,0.22,0.44.34,0.64,0.21,0.31.33,0.47l0.08,0.11,0.08,0.1,0.05,0.06,0.21,0.23a3.48,3.48,0,0,0,.46.43,4.14,4.14,0,0,0,.5.36l0.53,0.28h0v3.53a1.26,1.26,0,0,0-.44.21,1.3,1.3,0,0,0-.55,1.06v2.46a1.31,1.31,0,0,0,.91,1.25,23.73,23.73,0,0,0,14.66,0,1.31,1.31,0,0,0,.9-1.25v-2.46a1.3,1.3,0,0,0-.54-1.06,1.27,1.27,0,0,0-.47-0.21v-3.89A5.47,5.47,0,0,0,320.68,158.76Zm0-5.17h0Zm-1,13.2a22.27,22.27,0,0,1-13.84,0v-2.46a22.37,22.37,0,0,0,13.84,0v2.46Zm0.21-8.9a4.41,4.41,0,0,1-.84.63,4.05,4.05,0,0,1-1,.44,4.37,4.37,0,0,1-1.08.2,4.35,4.35,0,0,1-1.13,0,6.63,6.63,0,0,1-1.15-.26,5.3,5.3,0,0,0,1.06.58,5.15,5.15,0,0,0,1.2.32,4.85,4.85,0,0,0,1.7-.08v3.59a21.12,21.12,0,0,1-11.84,0v-3.43a4.71,4.71,0,0,0,1.63-.18,5.31,5.31,0,0,0,1.24-.57,3.86,3.86,0,0,0,.9-0.75s-0.42.09-1.11,0.19a12,12,0,0,1-1.2.08,5.17,5.17,0,0,1-1.41-.2,3,3,0,0,1-1.33-.76,1.5,1.5,0,0,1-.29-0.31l-0.14-.17,0,0,0,0-0.07-.11-0.15-.23-0.08-.11a1.16,1.16,0,0,1-.06-0.11c0-.12-0.1-0.24-0.16-0.36a2.51,2.51,0,0,1-.06-1.68l0.06-.21,0.1-.21a3.65,3.65,0,0,1,.23-0.38,3.45,3.45,0,0,1,.65-0.66,2.89,2.89,0,0,1,.8-0.44,2.07,2.07,0,0,1,.41-0.11l0.1,0h0.4a5,5,0,0,1,.95.13,4.82,4.82,0,0,1,1,.33,12.11,12.11,0,0,1,1.78,1,14.85,14.85,0,0,0,1.74,1,4.56,4.56,0,0,0,1.76.46,3.33,3.33,0,0,0,1.36-.23l0.25-.1,0.2-.12a1.72,1.72,0,0,0,.3-0.2l0.24-.19-0.29.07a1.91,1.91,0,0,1-.34.07l-0.21,0-0.24,0a3.34,3.34,0,0,1-1.16-.13,4.42,4.42,0,0,1-1.32-.66,8.52,8.52,0,0,1-.7-0.55l-0.78-.63-0.21-.17,0.46-.07a2.42,2.42,0,0,1,.27,0h0.27a1.62,1.62,0,0,1,.27,0l0.26,0a3.66,3.66,0,0,1,.51.14l0.25,0.09,0.24,0.11c0.16,0.07.3,0.19,0.46,0.27l0.42,0.24,0.35-.23h0a9.74,9.74,0,0,1,1-.46,7.68,7.68,0,0,1,1-.33,4.76,4.76,0,0,1,1-.14,3,3,0,0,1,.92.11,2.69,2.69,0,0,1,1.44,1.07l0.07,0.1,0,0h0l0,0.05c0,0.08.11,0.18,0.14,0.24l0.08,0.18,0.08,0.22a2.71,2.71,0,0,1,.13.91,3.67,3.67,0,0,1-.6,1.86A5.51,5.51,0,0,1,319.94,157.89ZM305,170.37a4.31,4.31,0,0,0,0,3.55h15.41a4.34,4.34,0,0,0,0-3.55H305Zm-8.33-3.19A16,16,0,0,1,301.23,156a4.94,4.94,0,0,1,.08-1.9A17.33,17.33,0,0,0,304,182.18v-1.56A16,16,0,0,1,296.7,167.17ZM324,154a4.08,4.08,0,0,1,0,1.79,16,16,0,0,1-2.77,24.94v1.55A17.34,17.34,0,0,0,324,154Zm-7.87,30.3A17,17,0,0,0,320,183V175h-3.87v9.35Z" transform="translate(-290.97 -145.41)"/></svg>