<svg id="Layer_1" data-name="Layer 1" xmlns="http://www.w3.org/2000/svg" viewBox="0 0 161.04 151.56"><defs><style>.cls-1{fill:#fff;}.cls-2{fill:#29abe2;}.cls-3{fill:#e90e8b;}.cls-4{fill:#fcee21;}.cls-5{fill:#010101;}</style></defs><title>logo-with-title</title><path class="cls-1" d="M684.87,136.75h0s0,0,0,0Zm-23.2-15.08A54.45,54.45,0,0,0,639.77,226a54.36,54.36,0,0,0,21.42,4.61h0.48a53.83,53.83,0,0,0,10.32-1,52,52,0,0,0,11.22-3.45A54.46,54.46,0,0,0,661.67,121.67Zm25.79,66.87h5.8a2.14,2.14,0,1,1,0,4.29h-5.8A15.52,15.52,0,0,0,687.46,188.54Zm-52.34,4.29H629.3a2.14,2.14,0,0,1,0-4.29h5.81A15.52,15.52,0,0,0,635.12,192.83Zm1.3,26.85a50.28,50.28,0,0,1-7.86-81.41,14.33,14.33,0,0,0-.24,5.52,46.43,46.43,0,0,0,8.11,71.37v4.53Zm46.42,2.43a49.21,49.21,0,0,1-11.22,3.73,50.57,50.57,0,0,1-10.2,1h-0.62a51.42,51.42,0,0,1-21.41-5.07V198.72h43.45v23.4Zm1.2-26.4h-44.7a12.5,12.5,0,0,1,0-10.31H684A12.58,12.58,0,0,1,684,195.72Zm0.21-30.9a3.78,3.78,0,0,1,1.56,3.09V175a3.8,3.8,0,0,1-2.62,3.63,68.84,68.84,0,0,1-42.52,0A3.81,3.81,0,0,1,638,175v-7.13a3.78,3.78,0,0,1,2.87-3.68V154a0,0,0,0,0,0,0c-0.49-.25-1-0.52-1.54-0.82a12.19,12.19,0,0,1-1.45-1,10.15,10.15,0,0,1-1.34-1.24l-0.62-.67-0.15-.17-0.23-.3-0.23-.31c-0.33-.46-0.62-0.82-1-1.37s-0.66-1.22-1-1.87-0.45-1.27-.66-1.94-0.27-1.39-.34-2.09a12.42,12.42,0,0,1,.49-4.31,13.17,13.17,0,0,1,5-6.9,12.61,12.61,0,0,1,3.85-1.94,10.63,10.63,0,0,1,2.24-.44l0.55-.06h0.58l0.88,0a17.76,17.76,0,0,1,4,.78,22.15,22.15,0,0,1,3.46,1.47c0.27,0.14.52,0.31,0.79,0.47l0.07,0c0.31-.13.63-0.25,1-0.37a16.46,16.46,0,0,1,2-.57,19.14,19.14,0,0,1,2-.33c0.34-.06.69,0,1-0.07s0.69,0,1,0a8.36,8.36,0,0,1,1,.09l1,0.13a18.6,18.6,0,0,1,2.05.54c0.33,0.13.68,0.23,1,.37l1,0.45a6.11,6.11,0,0,1,.61.35,21,21,0,0,1,2.21-1.26,21.65,21.65,0,0,1,3.51-1.4,16,16,0,0,1,3.87-.66,11.74,11.74,0,0,1,4.12.44,11.06,11.06,0,0,1,3.8,1.91,13.42,13.42,0,0,1,2.8,3l0.27,0.41,0.09,0.11,0.08,0.14,0,0,0.1,0.18c0.14,0.28.27,0.47,0.42,0.81l0.47,1c0.11,0.34.21,0.68,0.31,1a12,12,0,0,1,.35,4.13A13.53,13.53,0,0,1,687.5,149a14.92,14.92,0,0,1-2.75,2.7,15.91,15.91,0,0,1-1.86,1.19v11.28A3.69,3.69,0,0,1,684.25,164.82ZM686.4,220v-4.5a46.43,46.43,0,0,0,8-72.35,11.93,11.93,0,0,0,0-5.19A50.29,50.29,0,0,1,686.4,220Zm-44.55-52.09V175A64.63,64.63,0,0,0,682,175v-7.13A64.91,64.91,0,0,1,641.85,167.91Zm44.4-26.43a7.94,7.94,0,0,0-.38-2.65c-0.07-.21-0.16-0.42-0.23-0.64s-0.17-.34-0.24-0.52-0.28-.47-0.41-0.69l-0.08-.16,0,0-0.06-.06-0.21-.3a7.8,7.8,0,0,0-4.19-3.1,8.66,8.66,0,0,0-2.66-.33,13.79,13.79,0,0,0-2.88.41,22.43,22.43,0,0,0-2.93,1,28.6,28.6,0,0,0-2.77,1.35h0l-1,.68-1.22-.69c-0.45-.25-0.87-0.58-1.33-0.79l-0.71-.33a6.57,6.57,0,0,0-.72-0.27,10.94,10.94,0,0,0-1.49-.4l-0.76-.09a4.83,4.83,0,0,0-.78-0.06,5,5,0,0,0-.79,0,7.21,7.21,0,0,0-.78,0c-0.44,0-.89.11-1.33,0.2,0.2,0.17.41,0.34,0.62,0.5l2.27,1.82a25.49,25.49,0,0,0,2,1.58,12.81,12.81,0,0,0,3.84,1.93,9.75,9.75,0,0,0,3.37.38l0.69-.06,0.61-.11a5.6,5.6,0,0,0,1-.2l0.83-.21-0.69.54a5.07,5.07,0,0,1-.86.58c-0.17.1-.39,0.2-0.58,0.34a7.09,7.09,0,0,0-.72.3,9.62,9.62,0,0,1-4,.67,13.18,13.18,0,0,1-5.09-1.35,43,43,0,0,1-5-3,35.1,35.1,0,0,0-5.16-3,14.07,14.07,0,0,0-2.76-.95,14.29,14.29,0,0,0-2.74-.37l-0.85,0h-0.29l-0.28,0a6.14,6.14,0,0,0-1.19.31,8.48,8.48,0,0,0-2.31,1.29,8.55,8.55,0,0,0-2.55,3l-0.28.59-0.19.59a7.3,7.3,0,0,0,.17,4.87c0.17,0.34.32,0.69,0.46,1a2.82,2.82,0,0,0,.17.33l0.23,0.33,0.44,0.68,0.2,0.32,0,0.07,0.07,0.07,0.41,0.48a4.43,4.43,0,0,0,.85.91,8.84,8.84,0,0,0,3.86,2.21,14.9,14.9,0,0,0,4.1.58,34.36,34.36,0,0,0,3.49-.22c2-.27,3.23-0.54,3.23-0.54a11.32,11.32,0,0,1-2.62,2.16,15.54,15.54,0,0,1-3.61,1.67,13.65,13.65,0,0,1-4.74.52v10a61.3,61.3,0,0,0,34.35,0V154.4a14.09,14.09,0,0,1-4.92.23,14.91,14.91,0,0,1-3.48-.92A15.54,15.54,0,0,1,667.6,152a19.39,19.39,0,0,0,3.33.75,12.73,12.73,0,0,0,3.28.13,12.85,12.85,0,0,0,3.13-.57,11.73,11.73,0,0,0,2.84-1.29,12.67,12.67,0,0,0,2.44-1.82,15.5,15.5,0,0,0,1.91-2.33A10.64,10.64,0,0,0,686.26,141.48ZM661.67,113a63.12,63.12,0,1,0,63.14,63.12A63.13,63.13,0,0,0,661.67,113Zm0,123a59.86,59.86,0,1,1,59.87-59.87A59.93,59.93,0,0,1,661.67,236Z" transform="translate(-581.16 -113.02)"/><path class="cls-2" d="M639.39,198.72v23.11A49.88,49.88,0,0,0,650,225.57V198.72H639.39Z" transform="translate(-581.16 -113.02)"/><path class="cls-3" d="M650,198.72v26.85a50.14,50.14,0,0,0,10.79,1.33V198.72H650Z" transform="translate(-581.16 -113.02)"/><path class="cls-4" d="M660.79,198.72V226.9h0.62a50.57,50.57,0,0,0,10.2-1V198.72H660.79Z" transform="translate(-581.16 -113.02)"/><path d="M629.3,188.54a2.14,2.14,0,0,0,0,4.29h5.81a15.52,15.52,0,0,1,0-4.29H629.3Zm64,4.29a2.14,2.14,0,1,0,0-4.29h-5.8a15.52,15.52,0,0,1,0,4.29h5.8Zm-31.59-76.55a59.86,59.86,0,1,0,59.87,59.86A59.93,59.93,0,0,0,661.67,116.28Zm21.54,109.88A52,52,0,0,1,672,229.61a53.83,53.83,0,0,1-10.32,1h-0.48A54.36,54.36,0,0,1,639.77,226,54.46,54.46,0,1,1,683.21,226.16Zm1.54-74.41a14.92,14.92,0,0,0,2.75-2.7,13.53,13.53,0,0,0,2.94-7.31,12,12,0,0,0-.35-4.13c-0.1-.33-0.2-0.67-0.31-1l-0.47-1c-0.15-.34-0.28-0.52-0.42-0.81l-0.1-.18,0,0-0.08-.14-0.09-.11-0.27-.41a13.42,13.42,0,0,0-2.8-3,11.06,11.06,0,0,0-3.8-1.91,11.74,11.74,0,0,0-4.12-.44,16,16,0,0,0-3.87.66,21.65,21.65,0,0,0-3.51,1.4A21,21,0,0,0,668,131.8a6.11,6.11,0,0,0-.61-0.35l-1-.45c-0.31-.14-0.66-0.24-1-0.37a18.6,18.6,0,0,0-2.05-.54l-1-.13a8.36,8.36,0,0,0-1-.09c-0.36,0-.7,0-1,0s-0.69,0-1,.07a19.14,19.14,0,0,0-2,.33,16.46,16.46,0,0,0-2,.57c-0.33.11-.65,0.24-1,0.37l-0.07,0c-0.27-.16-0.52-0.33-0.79-0.47a22.15,22.15,0,0,0-3.46-1.47,17.76,17.76,0,0,0-4-.78l-0.88,0h-0.58l-0.55.06a10.63,10.63,0,0,0-2.24.44,12.61,12.61,0,0,0-3.85,1.94,13.17,13.17,0,0,0-5,6.9,12.42,12.42,0,0,0-.49,4.31c0.07,0.71.21,1.4,0.34,2.09s0.44,1.31.66,1.94,0.64,1.27,1,1.87,0.62,0.91,1,1.37l0.23,0.31,0.23,0.3,0.15,0.17,0.62,0.67a10.15,10.15,0,0,0,1.34,1.24,12.19,12.19,0,0,0,1.45,1c0.51,0.3,1,.57,1.54.82a0,0,0,0,1,0,0v10.24a3.78,3.78,0,0,0-2.87,3.68V175a3.81,3.81,0,0,0,2.63,3.63,68.84,68.84,0,0,0,42.52,0A3.8,3.8,0,0,0,685.8,175v-7.13a3.78,3.78,0,0,0-1.56-3.09,3.69,3.69,0,0,0-1.35-.61V152.94A15.91,15.91,0,0,0,684.75,151.75Zm0.11-15,0,0s0,0,0,0h0ZM682,175a64.63,64.63,0,0,1-40.14,0v-7.13a64.91,64.91,0,0,0,40.14,0V175Zm0.61-25.82a12.67,12.67,0,0,1-2.44,1.82,11.73,11.73,0,0,1-2.84,1.29,12.85,12.85,0,0,1-3.13.57,12.73,12.73,0,0,1-3.28-.13,19.39,19.39,0,0,1-3.33-.75,15.54,15.54,0,0,0,3.07,1.68,14.91,14.91,0,0,0,3.48.92,14.09,14.09,0,0,0,4.92-.23v10.43a61.3,61.3,0,0,1-34.35,0v-10a13.65,13.65,0,0,0,4.74-.52,15.54,15.54,0,0,0,3.61-1.67,11.32,11.32,0,0,0,2.62-2.16s-1.22.27-3.23,0.54a34.36,34.36,0,0,1-3.49.22,14.9,14.9,0,0,1-4.1-.58,8.84,8.84,0,0,1-3.86-2.21,4.43,4.43,0,0,1-.85-0.91l-0.41-.48-0.07-.07,0-.07-0.2-.32-0.44-.68-0.23-.33a2.82,2.82,0,0,1-.17-0.33c-0.14-.35-0.29-0.71-0.46-1a7.3,7.3,0,0,1-.17-4.87l0.19-.59,0.28-.59a8.55,8.55,0,0,1,2.55-3,8.48,8.48,0,0,1,2.31-1.29,6.14,6.14,0,0,1,1.19-.31l0.28,0H645l0.85,0a14.29,14.29,0,0,1,2.74.37,14.07,14.07,0,0,1,2.76.95,35.1,35.1,0,0,1,5.16,3,43,43,0,0,0,5,3,13.18,13.18,0,0,0,5.09,1.35,9.62,9.62,0,0,0,4-.67,7.09,7.09,0,0,1,.72-0.3c0.2-.14.41-0.24,0.58-0.34a5.07,5.07,0,0,0,.86-0.58l0.69-.54-0.83.21a5.6,5.6,0,0,1-1,.2l-0.61.11-0.69.06a9.75,9.75,0,0,1-3.37-.38,12.81,12.81,0,0,1-3.84-1.93,25.49,25.49,0,0,1-2-1.58l-2.27-1.82c-0.21-.16-0.42-0.33-0.62-0.5,0.44-.09.9-0.16,1.33-0.2a7.21,7.21,0,0,1,.78,0,5,5,0,0,1,.79,0,4.83,4.83,0,0,1,.78.06l0.76,0.09a10.94,10.94,0,0,1,1.49.4,6.57,6.57,0,0,1,.72.27l0.71,0.33c0.45,0.21.88,0.54,1.33,0.79l1.22,0.69,1-.68h0a28.6,28.6,0,0,1,2.77-1.35,22.43,22.43,0,0,1,2.93-1,13.79,13.79,0,0,1,2.88-.41,8.66,8.66,0,0,1,2.66.33,7.8,7.8,0,0,1,4.19,3.1l0.21,0.3,0.06,0.06,0,0L685,137c0.12,0.23.32,0.51,0.41,0.69s0.16,0.35.24,0.52,0.15,0.42.23,0.64a7.94,7.94,0,0,1,.38,2.65,10.64,10.64,0,0,1-1.74,5.4A15.5,15.5,0,0,1,682.61,149.22Zm-43.28,36.19a12.5,12.5,0,0,0,0,10.31H684a12.58,12.58,0,0,0,0-10.31h-44.7Zm-24.16-9.27a46.37,46.37,0,0,1,13.14-32.35,14.33,14.33,0,0,1,.24-5.52,50.28,50.28,0,0,0,7.86,81.41v-4.53A46.45,46.45,0,0,1,615.17,176.14ZM694.45,138a11.93,11.93,0,0,1,0,5.19,46.43,46.43,0,0,1-8,72.35V220A50.29,50.29,0,0,0,694.45,138Zm-22.83,87.89a49.21,49.21,0,0,0,11.22-3.73v-23.4H671.62v27.13Z" transform="translate(-581.16 -113.02)"/><path class="cls-5" d="M597.35,248.71l-2.09,4.38a16,16,0,0,0-6-2c-0.64,0-1.07.2-1.07,0.72,0,2.19,9,.82,9,7.14,0,3.88-3.41,5.59-7.34,5.59a15.13,15.13,0,0,1-8.73-2.78l2.14-4.33a12.71,12.71,0,0,0,6.64,2.71c0.84,0,1.39-.27,1.39-0.89,0-2.27-9-.77-9-6.89,0-3.48,2.94-5.67,7.47-5.67A14.87,14.87,0,0,1,597.35,248.71Z" transform="translate(-581.16 -113.02)"/><path class="cls-5" d="M615.23,256.94c0,4.63-3.26,7.64-8.31,7.64s-8.43-3-8.43-7.64v-10h5.77v10a2.7,2.7,0,0,0,2.69,2.84,2.57,2.57,0,0,0,2.51-2.84v-10h5.77v10Z" transform="translate(-581.16 -113.02)"/><path class="cls-5" d="M626.31,246.89c4.2,0,6.92,1.74,6.92,4.4a3.94,3.94,0,0,1-2.94,3.73,4.37,4.37,0,0,1,3.45,4.4c0,3-2.76,4.9-7,4.9h-9.26V246.89h8.83Zm-3.08,6.71H626a1.22,1.22,0,0,0,1.32-1.27,1.19,1.19,0,0,0-1.32-1.22h-2.75v2.49Zm0,6.49H626a1.51,1.51,0,0,0,1.77-1.39c0-.77-0.7-1.27-1.77-1.27h-2.75v2.66Z" transform="translate(-581.16 -113.02)"/><path class="cls-5" d="M642.26,256.07l-3.38,3.71v4.54h-2V246.92h2v10l9.36-10h2.36l-6.89,7.56,7.42,9.85h-2.44Z" transform="translate(-581.16 -113.02)"/><path class="cls-5" d="M654.29,264.33V246.92h2v17.41h-2Z" transform="translate(-581.16 -113.02)"/><path class="cls-5" d="M666.85,248.84v15.49h-2V248.84h-5.68v-1.92h13.36v1.92h-5.7Z" transform="translate(-581.16 -113.02)"/><path class="cls-5" d="M688.13,249.41l-1.2,1.52a7.31,7.31,0,0,0-5.14-2.19,6.87,6.87,0,1,0,0,13.73,7.56,7.56,0,0,0,5.14-2.09l1.22,1.38a9.61,9.61,0,0,1-6.47,2.68,8.78,8.78,0,1,1,.07-17.56A9.42,9.42,0,0,1,688.13,249.41Z" transform="translate(-581.16 -113.02)"/><path class="cls-5" d="M704.24,264.33v-7.66h-10.5v7.66h-2V246.92h2v7.86h10.5v-7.86h2v17.41h-2Z" transform="translate(-581.16 -113.02)"/><path class="cls-5" d="M713.5,248.84v5.71h8.78v1.92H713.5v6h10.15v1.89H711.51V246.92h11.82v1.92H713.5Z" transform="translate(-581.16 -113.02)"/><path class="cls-5" d="M740.15,264.33l-10.45-14v14h-2V246.92h2.06l10.45,14v-14h2v17.41h-2Z" transform="translate(-581.16 -113.02)"/></svg>