<svg id="Layer_2" data-name="Layer 2" xmlns="http://www.w3.org/2000/svg" viewBox="0 0 178.34 156.68"><defs><style>.cls-1{fill:#fff;}.cls-2,.cls-3{fill:none;stroke:#231f20;stroke-linejoin:round;}.cls-2{stroke-width:3.89px;}.cls-3{stroke-linecap:round;stroke-width:1.62px;stroke-dasharray:2.44 2.44;}</style></defs><title>process-2</title><path class="cls-1" d="M394.38,491.38s10.12,10.86,38.29,0c-0.13,6.79-1.88,18.27-13.72,19.28s-21.74-3.2-23.75-10.8S394.38,491.38,394.38,491.38Z" transform="translate(-324.35 -488.77)"/><path class="cls-2" d="M413.8,496.33c-10.92,0-20.7-5.61-20.7-5.61L369.3,502.24l-43,42.55,23.56,24L372,557.46v86H413.8" transform="translate(-324.35 -488.77)"/><path class="cls-2" d="M393.09,490.71s-0.23,19.95,20.7,19.95" transform="translate(-324.35 -488.77)"/><path class="cls-2" d="M385.7,493.19s0.63,25,28.1,25" transform="translate(-324.35 -488.77)"/><path class="cls-2" d="M369.3,502.24S372,533.59,372,565.59" transform="translate(-324.35 -488.77)"/><path class="cls-2" d="M413.25,496.33c10.92,0,20.7-5.61,20.7-5.61l23.79,11.53,43,42.55-23.56,24L455,557.46v86H413.25" transform="translate(-324.35 -488.77)"/><path class="cls-2" d="M434,490.71s0.23,19.95-20.7,19.95" transform="translate(-324.35 -488.77)"/><path class="cls-2" d="M441.35,493.19s-0.63,25-28.1,25" transform="translate(-324.35 -488.77)"/><path class="cls-2" d="M457.75,502.24S455,533.59,455,565.59" transform="translate(-324.35 -488.77)"/><line class="cls-3" x1="148.37" y1="76.72" x2="171.1" y2="53.2"/><path class="cls-2" d="M413.8,496.33c-10.92,0-20.7-5.61-20.7-5.61L369.3,502.24l-43,42.55,23.56,24L372,557.46v86H413.8" transform="translate(-324.35 -488.77)"/><path class="cls-2" d="M393.09,490.71s-0.23,19.95,20.7,19.95" transform="translate(-324.35 -488.77)"/><path class="cls-2" d="M385.7,493.19s0.63,25,28.1,25" transform="translate(-324.35 -488.77)"/><path class="cls-2" d="M369.3,502.24S372,533.59,372,565.59" transform="translate(-324.35 -488.77)"/><path class="cls-2" d="M413.25,496.33c10.92,0,20.7-5.61,20.7-5.61l23.79,11.53,43,42.55-23.56,24L455,557.46v86H413.25" transform="translate(-324.35 -488.77)"/><path class="cls-2" d="M434,490.71s0.23,19.95-20.7,19.95" transform="translate(-324.35 -488.77)"/><path class="cls-2" d="M441.35,493.19s-0.63,25-28.1,25" transform="translate(-324.35 -488.77)"/><path class="cls-2" d="M457.75,502.24S455,533.59,455,565.59" transform="translate(-324.35 -488.77)"/><line class="cls-3" x1="148.37" y1="76.72" x2="171.1" y2="53.2"/><path class="cls-3" d="M395.15,499.67s15.75,10.75,36.3,1" transform="translate(-324.35 -488.77)"/><path class="cls-3" d="M382,496.07s2,25.72,31.22,25.72S445,496.07,445,496.07" transform="translate(-324.35 -488.77)"/></svg>