<svg id="Layer_2" data-name="Layer 2" xmlns="http://www.w3.org/2000/svg" viewBox="0 0 125.26 154.13"><defs><style>.cls-1,.cls-2,.cls-3{fill:none;stroke:#231f20;stroke-linejoin:round;}.cls-1{stroke-width:3.89px;}.cls-2,.cls-3{stroke-linecap:round;}.cls-2{stroke-width:1.62px;stroke-dasharray:2.44 2.44;}.cls-3{stroke-width:3.89px;}.cls-4{fill:#231f20;}</style></defs><title>process-1</title><path class="cls-1" d="M688.91,528.64S646.47,549,646.47,590.12s37.92,53.12,61.23,53.12" transform="translate(-644.52 -491.05)"/><path class="cls-1" d="M725.4,528.64s42.44,20.38,42.44,61.47-37.92,53.12-61.23,53.12" transform="translate(-644.52 -491.05)"/><path class="cls-1" d="M729.07,528.45H684.24a4.5,4.5,0,0,1,0-9h44.83A4.5,4.5,0,0,1,729.07,528.45Z" transform="translate(-644.52 -491.05)"/><line class="cls-2" x1="37.67" y1="41.47" x2="87.59" y2="41.47"/><path class="cls-2" d="M653.19,616.5s24.21,21.9,54,21.9c7,0,36.29-1,56-25.68" transform="translate(-644.52 -491.05)"/><path class="cls-1" d="M690.09,519.45L676.2,507.93S657.43,493,706.61,493" transform="translate(-644.52 -491.05)"/><path class="cls-1" d="M723.13,519.45L737,507.93S755.79,493,706.61,493" transform="translate(-644.52 -491.05)"/><path class="cls-2" d="M673.69,505.08s1.71-6.51,33.46-6.51,31.55,7.65,31.55,7.65" transform="translate(-644.52 -491.05)"/><line class="cls-3" x1="57.27" y1="28.4" x2="51.74" y2="21.49"/><line class="cls-3" x1="67.45" y1="28.4" x2="73.66" y2="20.63"/><line class="cls-3" x1="62.63" y1="27.8" x2="62.63" y2="13.45"/><path class="cls-4" d="M710.81,555v3.41a19.75,19.75,0,0,1,5.8,1.39,11.46,11.46,0,0,1,4.22,3.16,13.44,13.44,0,0,1,2.2,3.32,7.65,7.65,0,0,1,.77,3.13,3.74,3.74,0,0,1-1.15,2.73,3.81,3.81,0,0,1-2.8,1.15q-3.1,0-4-3.35a7.16,7.16,0,0,0-5-5.25v13.14q3.92,1.07,6.24,2a12.93,12.93,0,0,1,4.15,2.56,11.83,11.83,0,0,1,3,4.15,13,13,0,0,1,1.06,5.29,14,14,0,0,1-1.69,6.75,13.36,13.36,0,0,1-5,5.13,17.72,17.72,0,0,1-7.8,2.37v7.87a7.44,7.44,0,0,1-.36,2.72,1.54,1.54,0,0,1-1.6.85,1.76,1.76,0,0,1-1.59-.7,4,4,0,0,1-.46-2.15v-8.53a20,20,0,0,1-6.46-1.74,15.26,15.26,0,0,1-4.61-3.3A13.76,13.76,0,0,1,693,597a10.87,10.87,0,0,1-.88-4.19,3.83,3.83,0,0,1,1.19-2.73,4,4,0,0,1,3-1.22,4.18,4.18,0,0,1,2.4.66,3.42,3.42,0,0,1,1.36,1.86,39.68,39.68,0,0,0,1.49,4,7.63,7.63,0,0,0,1.91,2.51,8.52,8.52,0,0,0,3.4,1.74V584.89a38.6,38.6,0,0,1-7.08-2.61,11.91,11.91,0,0,1-4.61-4.09,13.54,13.54,0,0,1,1.69-15.73q3.46-3.48,10-4v-3.35q0-2.65,2-2.65T710.81,555Zm-4,21.67v-12.1a11,11,0,0,0-4.14,2.08,5.87,5.87,0,0,0-.09,7.69A12.79,12.79,0,0,0,706.8,576.67Zm4,9.38v13.84a8.67,8.67,0,0,0,4.93-2.56,6.49,6.49,0,0,0,1.74-4.49,5.39,5.39,0,0,0-1.69-4.25A13.77,13.77,0,0,0,710.81,586.06Z" transform="translate(-644.52 -491.05)"/></svg>