<svg id="Layer_2" data-name="Layer 2" xmlns="http://www.w3.org/2000/svg" viewBox="0 0 150.13 155.67"><defs><style>.cls-1,.cls-3,.cls-4{fill:none;stroke:#231f20;stroke-linejoin:round;}.cls-1,.cls-4{stroke-width:4px;}.cls-2{fill:#231f20;}.cls-3,.cls-4{stroke-linecap:round;}.cls-3{stroke-width:1.62px;stroke-dasharray:2.44 2.44;}</style></defs><title>process-3</title><path class="cls-1" d="M153.6,558.27l-1-.58s-3.69-2.51-6.77.57S109.32,596.7,102.32,611c-4.42,9-4,21.67,6.83,28.83,9.35,6.18,26.17,2.2,32.83-16.83,6.08-17.37,14.33-54.67,15-58.17S156.74,560,153.6,558.27Z" transform="translate(-44.2 -489.65)"/><line class="cls-1" x1="109.21" y1="68.52" x2="64.96" y2="150.22"/><path class="cls-1" d="M150.84,557s-51.37,61.73-43.52,81.57" transform="translate(-44.2 -489.65)"/><path class="cls-1" d="M155.42,559.44s-21.74,79.76-43.47,81.89" transform="translate(-44.2 -489.65)"/><path class="cls-1" d="M148.49,556.74L174.22,506a3.15,3.15,0,0,1,4.61-1.49c3.52,1.87,6,3.15,6,3.15s2.49,1,.85,4.28-28.58,50-28.58,50" transform="translate(-44.2 -489.65)"/><circle class="cls-1" cx="140.62" cy="9.51" r="7.51"/><circle class="cls-2" cx="140.62" cy="9.51" r="2.18"/><line class="cls-3" x1="109.41" y1="68.62" x2="137.6" y2="16.42"/><line class="cls-4" x1="2" y1="153.67" x2="119.36" y2="153.67"/></svg>