<svg id="Layer_1" data-name="Layer 1" xmlns="http://www.w3.org/2000/svg" viewBox="0 0 19.5 19.5"><defs><style>.cls-1{fill:#010101;}.cls-2{fill:#fff;}</style></defs><title>move</title><circle class="cls-1" cx="9.75" cy="9.75" r="9.75"/><path class="cls-2" d="M168.79,109.57a0.78,0.78,0,1,0-1.56,0v3.13c0,0.23-.05.38-0.23,0.38a0.41,0.41,0,0,1-.23-0.45V108a0.78,0.78,0,1,0-1.56,0v4c0,0.29-.09.49-0.29,0.49a0.35,0.35,0,0,1-.23-0.36v-4.77a0.78,0.78,0,1,0-1.56,0V112c0,0.28-.05.46-0.21,0.46a0.39,0.39,0,0,1-.23-0.42v-3.67a0.78,0.78,0,1,0-1.56,0v6.38l-1.25-1.62a0.93,0.93,0,0,0-1.5,1.1l1.41,2c0.86,1.41,2,3.63,5,3.63s3.88-2.2,4-3.63a0.83,0.83,0,0,0,0-.1v-6.62h0Z" transform="translate(-154.53 -103.5)"/></svg>