<svg id="Layer_1" data-name="Layer 1" xmlns="http://www.w3.org/2000/svg" viewBox="0 0 19.5 19.5"><defs><style>.cls-1{fill:#010101;}.cls-2{fill:#fff;}</style></defs><title>rotate</title><path class="cls-1" d="M102.6,103.5a9.75,9.75,0,1,0,9.75,9.75A9.75,9.75,0,0,0,102.6,103.5Zm6.95,10.57-0.1.51-0.1.51-0.21.58a3.74,3.74,0,0,1-.5,1,4.68,4.68,0,0,1-.63.85c-0.24.24-.47,0.48-0.7,0.69l-0.75.51a5.84,5.84,0,0,1-1.43.6,7.52,7.52,0,0,1-1.16.17c-0.65,0-1,0-1,0l0.95-.24a7.23,7.23,0,0,0,1-.43,3,3,0,0,0,.54-0.36A3.23,3.23,0,0,0,106,118l0.53-.55c0.15-.21.29-0.45,0.44-0.67a3.53,3.53,0,0,0,.35-0.75,2.85,2.85,0,0,0,.22-0.77l0.09-.38v-1.16s0-.1,0,0.09h0v-0.08l0-.21a4.47,4.47,0,0,0-.56-1.62,4.65,4.65,0,0,0-1.07-1.28c-0.24-.14-0.43-0.34-0.67-0.46s-0.48-.24-0.7-0.32a3.27,3.27,0,0,1-.6-0.17c-0.28,0-.62-0.06-0.92-0.08h-0.27l-0.33,0a5.36,5.36,0,0,0-.61.14,4.78,4.78,0,0,0-1,.42,3.63,3.63,0,0,0-.67.46c-0.08.07-.13,0.1-0.22,0.18l-0.19.2,1.1,0.88-4.13.46-0.45-4.13,1.32,1.06,0.09-.1,0.2-.23c0.08-.1.25-0.24,0.4-0.38a4.17,4.17,0,0,1,.53-0.42,4.89,4.89,0,0,1,.64-0.41,6,6,0,0,1,1.68-.68,8.16,8.16,0,0,1,1-.18l0.54,0h0.41l0.23,0c0.31,0,.6.06,1,0.13s0.85,0.26,1.27.41,0.73,0.4,1.1.62a8.14,8.14,0,0,1,1,.82,7,7,0,0,1,1.41,2.12,6.53,6.53,0,0,1,.49,2.45V114Z" transform="translate(-92.85 -103.5)"/><path class="cls-2" d="M109.57,113.82V113.4a6.53,6.53,0,0,0-.49-2.45,7,7,0,0,0-1.41-2.12,8,8,0,0,0-1-.82c-0.36-.21-0.71-0.44-1.1-0.62s-0.85-.3-1.27-0.41-0.64-.08-1-0.13l-0.23,0h-0.41l-0.54,0a8.13,8.13,0,0,0-1,.18,6,6,0,0,0-1.68.68,5,5,0,0,0-.64.41,4.17,4.17,0,0,0-.53.42c-0.15.14-.31,0.28-0.4,0.38l-0.2.23-0.09.1-1.32-1.06,0.45,4.13,4.13-.46-1.1-.88,0.19-.2c0.08-.08.14-0.11,0.22-0.18a3.58,3.58,0,0,1,.67-0.46,4.78,4.78,0,0,1,1-.42,5.83,5.83,0,0,1,.61-0.14l0.33,0h0.27c0.29,0,.64,0,0.92.08a3.3,3.3,0,0,0,.6.17c0.22,0.08.46,0.22,0.7,0.32s0.43,0.31.67,0.46a4.65,4.65,0,0,1,1.07,1.28,4.46,4.46,0,0,1,.56,1.63l0,0.21v0.08h0c0-.19,0,0,0-0.09v1.16l-0.09.38a2.84,2.84,0,0,1-.22.77,3.5,3.5,0,0,1-.35.75c-0.15.22-.29,0.46-0.44,0.67L106,118a3.19,3.19,0,0,1-.56.44,3,3,0,0,1-.54.36,7.35,7.35,0,0,1-1,.43l-0.95.24,1,0a7.52,7.52,0,0,0,1.16-.17,5.86,5.86,0,0,0,1.43-.6l0.75-.51c0.24-.21.46-0.45,0.7-0.69a4.71,4.71,0,0,0,.63-0.85,3.74,3.74,0,0,0,.5-1l0.21-.58,0.1-.51,0.1-.51,0-.13v-0.13Z" transform="translate(-92.85 -103.5)"/></svg>