<svg id="Layer_1" data-name="Layer 1" xmlns="http://www.w3.org/2000/svg" viewBox="0 0 9.91 133.83"><defs><style>.cls-1{fill:#010101;}</style></defs><title>size</title><path class="cls-1" d="M43.84,103.9a5,5,0,0,0-5,4.93v124a5,5,0,0,0,9.91,0v-124A4.94,4.94,0,0,0,43.84,103.9Zm3.94,48H44.14v-5.2h1.71V146H44.14v-6.23h1.71v-0.66H44.14v-5.2h3.64v17.95Zm0,18.6H44.14v-5.2h1.71v-0.66H44.14v-6.23h1.71v-0.66H44.14v-5.2h3.64v17.94Zm0,19.73H44.14V185h1.71v-0.66H44.14v-6.23h1.71v-0.66H44.14v-6.33h3.64v19.07Zm0,18.6H44.14v-5.2h1.71V203H44.14v-6.23h1.71v-0.66H44.14v-5.2h3.64v17.95Zm-3,23.5H43.13v-0.53h1.65v0.53Zm-4.93-41.44h3.64v5.2h-1.7v0.66h1.7V203h-1.7v0.66h1.7v5.2H39.85V190.87Zm0-19.73h3.64v6.33h-1.7v0.66h1.7v6.23h-1.7V185h1.7v5.2H39.85V171.14Zm0-18.6h3.64v5.2h-1.7v0.66h1.7v6.23h-1.7v0.66h1.7v5.2H39.85V152.54Zm0-18.6h3.64v5.2h-1.7v0.66h1.7V146h-1.7v0.66h1.7v5.2H39.85V133.94Zm3.64,75.54v5.2h-1.7v0.66h1.7v6.23h-1.7v0.65h1.7v5H39.85V209.47h3.64Zm0.59-99.7V111H43.55v-1.19H42.38v-0.5h1.17v-1.18h0.53v1.18h1.17v0.5H44.08Zm0.06,23.5v-5.2h1.71v-0.66H44.14v-6.23h1.71v-0.66H44.14v-6.12h3.64v18.87H44.14Zm-4.3-18.87h3.64v6.12h-1.7v0.66h1.7v6.23h-1.7v0.66h1.7v5.2H39.85V114.41Zm7.93,112.8H44.14v-5h1.71v-0.66H44.14v-6.23h1.71v-0.66H44.14v-5.2h3.64v17.73Z" transform="translate(-38.86 -103.9)"/></svg>